<svg xmlns="http://www.w3.org/2000/svg" class=gnt_n_lg_svg id=gnt_svg_lg fill=#303030 preserveAspectRatio="xMinYMid meet" viewBox="0 0 285.64 37.71"><path fill=#007DC3 d="M129.46 37.6V.11h4.9v32.67h9.82v4.82h-14.72zm30.46.11h-6.89c-3.05 0-5.16-2.3-5.16-5.62V5.62c.01-3.32 2.12-5.62 5.15-5.62h6.88c3.04 0 5.15 2.3 5.15 5.62v26.46c.02 3.32-2.09 5.63-5.13 5.63zm0-32.78h-6.89c-.14 0-.25.1-.25.24v27.35c-.01.14.09.26.23.27h6.9c.14 0 .25-.11.25-.24V5.19c.01-.13-.08-.25-.21-.26h-.03zm22.1 32.67h-6.88c-2.95 0-5.16-2.41-5.16-5.62V5.62c0-3.21 2.22-5.62 5.16-5.62h6.88c2.95 0 5.16 2.41 5.16 5.62v5.19h-4.9V5.19c.01-.13-.08-.25-.21-.26h-6.92c-.13 0-.24.1-.25.24v27.35c-.01.13.08.25.22.27h6.91c.14 0 .25-.11.25-.24V26.9h4.9v5.09c-.01 3.2-2.22 5.61-5.16 5.61zm22.83-5.89h-8.34l-1.08 5.89h-5.21L197.59.11h6.19l7.35 37.49h-5.18l-1.1-5.89zm-.94-4.82l-3.09-16.66-.15-1.34-.15 1.34-3.1 16.66h6.49zm10.27 10.71V.11h4.9v32.67h9.85v4.82h-14.75z"/><path d="M249.79 37.71h-4.21c-1.71 0-3.15-1.57-3.15-3.44V23.03c0-1.95 1.44-3.44 3.15-3.44h4.21c1.79 0 3.15 1.49 3.15 3.44v3.51h-3.15v-3.63c0-.11-.04-.19-.18-.19h-3.86c-.1 0-.18.08-.18.17v11.48c-.01.1.06.18.16.19h3.88c.09 0 .17-.07.18-.17v-3.66h3.15v3.53c0 1.88-1.36 3.45-3.15 3.45zm13.02 0h-3.86c-1.96 0-3.33-1.49-3.33-3.63V23.22c0-2.22 1.37-3.63 3.33-3.63h3.84c2.04 0 3.33 1.41 3.33 3.63v10.85c.02 2.14-1.29 3.63-3.33 3.63h.02zm0-14.98h-3.86a.18.18 0 00-.17.17v11.48c0 .16.07.19.17.19h3.84c.09 0 .17-.07.18-.17V22.92c.01-.1-.06-.19-.16-.19h-.02.02zm19.68 14.9V22.92a.17.17 0 00-.16-.19h-3.35c-.1 0-.18.08-.18.17v14.73h-3.15V22.92a.17.17 0 00-.16-.19h-3.35a.18.18 0 00-.17.17v14.73h-3.15V19.68h3.08v1.68h.07c.38-1.19 1.15-1.76 2.7-1.76h1.09c1.54 0 2.28.57 2.66 1.76h.07c.38-1.19 1.12-1.76 2.66-1.76h1.15c2.04 0 3.33 1.41 3.33 3.63v14.4h-3.14zM26.52 37.6h-6.09l-4.11-26.89-.11-.92-.1.91-4.13 26.9H5.89L0 .11h5.3l3.83 27.21.15 1.44.15-1.44L13.21.11h6.04l3.73 27.21.15 1.44.15-1.44L27.16.11h5.26l-5.9 37.49zm8.94 0V.11h4.9V37.6h-4.9zm21.86 0h-6.88c-2.95 0-5.16-2.41-5.16-5.62V5.62C45.3 2.41 47.49 0 50.44 0h6.88c2.95 0 5.16 2.41 5.16 5.62v5.19h-4.9V5.19c.01-.13-.08-.25-.21-.26h-6.92c-.13 0-.24.1-.25.24v27.35c-.01.13.08.25.22.27h6.91c.14 0 .25-.11.25-.24V26.9h4.9v5.09c-.01 3.2-2.22 5.61-5.16 5.61zm31.04 0V.11h14.74v4.82h-9.83v10.44h7.37v4.82h-7.37v12.59h9.82v4.82H88.36zm31.04 0h-12.04V.11h12.03c3.04 0 5.16 2.31 5.16 5.62v26.25c0 3.32-2.11 5.62-5.15 5.62zm.24-5.09V5.19c.01-.13-.08-.25-.21-.26h-7.15v27.85h7.12c.14 0 .25-.11.25-.24l-.01-.03zM84.51.04h-5.92l-6.74 16.08V.04h-5.49v37.45h5.49V21.57l6.61 15.91h5.98l-7.99-18.66L84.51.04zm149.25 32.75h4.82v4.82h-4.82z"/></svg>
